<svg xmlns="http://www.w3.org/2000/svg" viewBox="0 0 48 48" width="48" height="48"><g><path fill="#4285F4" d="M24 9.5c3.54 0 6.7 1.22 9.2 3.23l6.9-6.9C36.6 2.1 30.7 0 24 0 14.8 0 6.7 5.1 2.7 12.6l8.1 6.3C12.7 13.2 17.9 9.5 24 9.5z"/><path fill="#34A853" d="M46.1 24.5c0-1.6-.1-3.1-.4-4.5H24v9h12.5c-.5 2.7-2.1 5-4.4 6.6l7 5.4c4.1-3.8 6.5-9.4 6.5-16.5z"/><path fill="#FBBC05" d="M10.8 28.9c-1.1-3.2-1.1-6.7 0-9.9l-8.1-6.3C.6 16.2 0 19 0 22c0 3 .6 5.8 1.7 8.3l9.1-7.4z"/><path fill="#EA4335" d="M24 48c6.5 0 12-2.1 16-5.7l-7-5.4c-2 1.3-4.5 2.1-9 2.1-6.1 0-11.3-4.1-13.2-9.6l-9.1 7.4C6.7 42.9 14.8 48 24 48z"/><path fill="none" d="M0 0h48v48H0z"/></g></svg>
