<?xml version="1.0" standalone="no"?>
<!DOCTYPE svg PUBLIC "-//W3C//DTD SVG 20010904//EN"
 "http://www.w3.org/TR/2001/REC-SVG-20010904/DTD/svg10.dtd">
<svg version="1.0" xmlns="http://www.w3.org/2000/svg"
 width="1024.000000pt" height="1024.000000pt" viewBox="0 0 1024.000000 1024.000000"
 preserveAspectRatio="xMidYMid meet">

<g transform="translate(0.000000,1024.000000) scale(0.100000,-0.100000)"
fill="#000000" stroke="none">
<path d="M0 5120 l0 -5120 5120 0 5120 0 0 5120 0 5120 -5120 0 -5120 0 0
-5120z m6774 2065 c3 -8 1 -15 -4 -15 -6 0 -10 7 -10 15 0 8 2 15 4 15 2 0 6
-7 10 -15z m-99 -14 c-3 -6 -11 -11 -17 -11 -6 0 -6 6 2 15 14 17 26 13 15 -4z
m45 -16 c0 -8 -4 -15 -10 -15 -5 0 -7 7 -4 15 4 8 8 15 10 15 2 0 4 -7 4 -15z
m60 -19 c0 -3 -4 -8 -10 -11 -5 -3 -10 -1 -10 4 0 6 5 11 10 11 6 0 10 -2 10
-4z m-83 -12 c-3 -3 -12 -4 -19 -1 -8 3 -5 6 6 6 11 1 17 -2 13 -5z m93 -324
c0 -64 -3 -80 -15 -80 -12 0 -15 16 -15 80 0 64 3 80 15 80 12 0 15 -16 15
-80z m1090 -58 c22 -18 21 -18 -51 -20 l-72 -3 24 20 c30 25 70 26 99 3z
m-1517 -9 c-7 -2 -21 -2 -30 0 -10 3 -4 5 12 5 17 0 24 -2 18 -5z m64 -81 c-3
-12 -5 -11 -6 5 0 12 -5 25 -11 28 -5 3 -10 14 -10 23 1 11 6 8 16 -11 8 -16
13 -36 11 -45z m1330 -59 c-2 -21 -4 -4 -4 37 0 41 2 58 4 38 2 -21 2 -55 0
-75z m-592 67 c11 -12 14 -20 7 -20 -9 0 -13 -34 -14 -122 -2 -104 -3 -110 -5
-38 -3 61 -8 87 -18 93 -9 5 -15 23 -15 47 0 37 -2 40 -27 39 l-28 -1 25 -8
c21 -7 18 -8 -15 -7 l-40 2 -6 -45 -6 -45 -1 40 c-1 42 10 64 43 83 26 16 75
7 100 -18z m-858 -547 l-2 -518 -3 523 c-1 340 -5 522 -12 522 -5 0 -11 -12
-11 -27 -2 -25 -2 -25 -6 -5 -3 13 1 30 8 38 11 14 13 14 21 0 4 -8 7 -248 5
-533z m483 487 c0 -29 -4 -40 -15 -40 -11 0 -15 11 -15 40 0 29 4 40 15 40 11
0 15 -11 15 -40z m387 -2 c-3 -7 -5 -2 -5 12 0 14 2 19 5 13 2 -7 2 -19 0 -25z
m-27 -718 l5 445 0 -450 c0 -355 -3 -449 -12 -448 -8 2 -13 -7 -13 -20 1 -21
1 -21 25 6 28 31 34 24 9 -11 -9 -13 -26 -22 -41 -22 -22 0 -24 2 -13 15 7 9
10 19 6 22 -4 4 -11 2 -15 -5 -9 -16 -41 -5 -41 14 0 8 5 14 11 14 5 0 7 -5 3
-12 -5 -8 0 -9 17 -5 13 4 27 7 32 7 4 0 8 255 9 568 l3 567 5 -565 5 -565 5
445z m27 618 c-2 -13 -4 -3 -4 22 0 25 2 35 4 23 2 -13 2 -33 0 -45z m-770
-160 c-2 -13 -4 -3 -4 22 0 25 2 35 4 23 2 -13 2 -33 0 -45z m636 -933 c4 -11
1 -6 -7 10 -13 25 -15 105 -13 510 l2 480 5 -490 c3 -269 8 -499 13 -510z
m714 933 c-2 -13 -4 -3 -4 22 0 25 2 35 4 23 2 -13 2 -33 0 -45z m-1726 23
l29 -29 -2 -289 -2 -288 -6 293 c-5 276 -6 295 -24 308 -25 18 -75 18 -99 0
-17 -13 -18 -36 -15 -324 2 -171 0 -308 -4 -305 -5 2 -8 143 -8 313 l0 309 26
20 c37 29 70 26 105 -8z m736 -23 c-2 -13 -4 -5 -4 17 -1 22 1 32 4 23 2 -10
2 -28 0 -40z m1458 42 c4 -6 -6 -7 -26 -3 -28 5 -36 2 -61 -28 l-29 -34 15 32
c9 17 21 33 28 36 23 9 67 7 73 -3z m-30 -20 c3 -5 1 -10 -4 -10 -6 0 -11 5
-11 10 0 6 2 10 4 10 3 0 8 -4 11 -10z m73 -74 l-2 -51 -3 50 c-2 28 -8 54
-14 60 -5 5 -9 14 -9 20 0 5 7 1 15 -9 9 -13 14 -39 13 -70z m-2278 64 c0 -5
-9 -10 -21 -10 -11 0 -17 5 -14 10 3 6 13 10 21 10 8 0 14 -4 14 -10z m1498 3
c-10 -2 -26 -2 -35 0 -10 3 -2 5 17 5 19 0 27 -2 18 -5z m-1458 -314 c0 -186
4 -289 10 -289 6 0 10 -4 10 -9 0 -14 -29 -41 -43 -41 -7 0 -4 7 6 14 9 7 17
19 17 26 0 9 -6 7 -20 -5 -16 -15 -24 -16 -42 -6 -22 11 -22 11 5 8 15 -3 27
1 27 7 1 6 1 121 2 256 l2 245 6 -245 6 -245 2 282 c1 155 -1 284 -6 287 -4 2
-7 -12 -6 -32 1 -34 1 -34 -3 -4 -2 17 -9 32 -14 32 -5 0 -4 6 3 14 9 10 17
11 26 4 9 -8 12 -80 12 -299z m1452 298 l53 2 -45 -9 c-25 -5 -52 -7 -60 -4
-13 3 -15 -32 -12 -281 2 -258 4 -285 19 -285 13 0 14 -3 5 -12 -6 -6 -15 -8
-19 -4 -12 12 -20 585 -8 597 5 5 11 6 12 2 2 -4 27 -7 55 -6z m688 -1 c0 -3
-4 -8 -10 -11 -5 -3 -10 -1 -10 4 0 6 5 11 10 11 6 0 10 -2 10 -4z m73 -3 c3
-5 -8 -8 -24 -9 -15 -1 -26 3 -23 7 6 11 41 12 47 2z m-1966 -555 c-1 -101 -2
-19 -2 182 0 201 1 283 2 183 2 -101 2 -265 0 -365z m150 480 c-2 -13 -4 -3
-4 22 0 25 2 35 4 23 2 -13 2 -33 0 -45z m367 -55 c-4 -65 -11 -119 -16 -121
-12 -5 -10 -82 3 -82 8 0 11 -71 9 -242 -1 -134 1 -314 3 -400 4 -95 2 -158
-4 -158 -5 0 -9 18 -9 40 0 22 -4 40 -10 40 -5 0 -10 18 -10 40 0 22 5 40 10
40 6 0 10 18 10 40 0 22 -4 40 -10 40 -6 0 -10 140 -10 400 0 260 4 400 10
400 6 0 10 18 10 40 0 22 5 40 10 40 7 0 8 -41 4 -117z m383 -535 c-1 -123 -2
-25 -2 217 0 242 1 342 2 223 2 -119 2 -317 0 -440z m247 53 c22 -25 58 -27
76 -6 14 17 30 20 30 5 0 -5 -7 -10 -15 -10 -8 0 -15 -4 -15 -10 0 -11 -39
-13 -65 -4 -41 16 -45 50 -43 341 l2 278 6 -286 c5 -264 7 -289 24 -308z m106
557 c0 -23 -3 -29 -9 -19 -8 12 -4 51 5 51 2 0 4 -15 4 -32z m17 -25 c-3 -10
-5 -4 -5 12 0 17 2 24 5 18 2 -7 2 -21 0 -30z m589 -81 c1 -90 20 -382 27
-414 1 -6 -3 -12 -9 -15 -7 -2 -10 13 -9 44 3 48 3 48 -5 8 l-7 -40 -3 45 c-3
41 -4 42 -7 11 -3 -18 1 -46 7 -62 11 -24 16 -27 44 -23 l31 5 -25 -16 -25
-16 33 5 c18 3 32 1 32 -4 0 -11 -40 -13 -65 -4 -36 14 -41 51 -39 299 2 289
2 300 11 291 4 -4 8 -55 9 -114z m-1729 -54 c-2 -24 -4 -5 -4 42 0 47 2 66 4
43 2 -24 2 -62 0 -85z m1120 60 c-2 -13 -4 -3 -4 22 0 25 2 35 4 23 2 -13 2
-33 0 -45z m630 0 c-2 -13 -4 -3 -4 22 0 25 2 35 4 23 2 -13 2 -33 0 -45z
m-400 -140 c-2 -24 -4 -5 -4 42 0 47 2 66 4 43 2 -24 2 -62 0 -85z m510 60
c-2 -13 -4 -3 -4 22 0 25 2 35 4 23 2 -13 2 -33 0 -45z m-2640 15 c-15 -2 -25
-8 -22 -13 3 -5 0 -12 -6 -16 -8 -4 -9 -3 -5 4 9 16 -7 15 -22 0 -9 -9 -12 -9
-12 0 0 16 37 31 70 30 23 -1 23 -1 -3 -5z m2972 -10 c22 -18 21 -18 -21 -19
-34 -2 -37 0 -18 6 21 6 22 8 8 14 -9 5 -27 1 -42 -9 -14 -9 -31 -15 -37 -13
-14 5 49 37 72 38 9 0 26 -8 38 -17z m-2934 -13 c-3 -5 -16 -10 -28 -9 -20 1
-20 2 3 9 14 4 26 8 28 9 2 1 0 -3 -3 -9z m972 -72 c-2 -13 -4 -3 -4 22 0 25
2 35 4 23 2 -13 2 -33 0 -45z m-1070 20 c-3 -7 -5 -2 -5 12 0 14 2 19 5 13 2
-7 2 -19 0 -25z m3060 -20 c-2 -13 -4 -5 -4 17 -1 22 1 32 4 23 2 -10 2 -28 0
-40z m-2922 -65 c-9 -51 -20 -46 -21 11 -1 37 1 44 6 26 7 -20 9 -16 11 25 2
48 3 48 6 10 3 -21 2 -54 -2 -72z m2772 75 c-3 -7 -5 -2 -5 12 0 14 2 19 5 13
2 -7 2 -19 0 -25z m-2916 -23 c5 4 9 -3 9 -14 0 -10 3 -27 7 -37 6 -16 7 -16
15 2 5 13 6 8 2 -13 -5 -29 -3 -32 13 -27 15 5 16 4 3 -6 -12 -9 -9 -11 18 -6
20 4 31 2 27 -4 -8 -12 -45 -13 -64 -1 -8 5 -16 18 -17 28 -2 11 -8 30 -14 44
-9 21 -10 18 -5 -16 3 -27 2 -34 -4 -20 -5 11 -8 43 -8 70 0 28 2 38 4 22 3
-15 9 -25 14 -22z m2706 -67 c-2 -13 -4 -3 -4 22 0 25 2 35 4 23 2 -13 2 -33
0 -45z m210 25 c-3 -10 -5 -4 -5 12 0 17 2 24 5 18 2 -7 2 -21 0 -30z m159
-10 c-11 -11 -19 6 -11 24 8 17 8 17 12 0 3 -10 2 -21 -1 -24z m-2229 -155
c-2 -24 -4 -5 -4 42 0 47 2 66 4 43 2 -24 2 -62 0 -85z m230 60 c-2 -13 -4 -3
-4 22 0 25 2 35 4 23 2 -13 2 -33 0 -45z m1120 -300 c-1 -68 -3 -13 -3 122 0
135 2 190 3 123 2 -68 2 -178 0 -245z m490 300 c-2 -13 -4 -3 -4 22 0 25 2 35
4 23 2 -13 2 -33 0 -45z m280 53 c22 -6 33 -6 36 2 2 6 6 3 10 -6 8 -22 -27
-23 -63 -2 -30 17 -26 18 17 6z m-257 -119 c0 -48 -21 -94 -37 -79 -4 5 0 13
10 18 12 7 17 23 17 59 0 28 2 50 5 50 3 0 5 -22 5 -48z m-720 -39 c0 -5 -21
-9 -48 -9 -44 -2 -45 -1 -12 6 50 11 60 11 60 3z m678 -10 c-10 -2 -26 -2 -35
0 -10 3 -2 5 17 5 19 0 27 -2 18 -5z m-753 -23 c-3 -5 -13 -10 -21 -10 -8 0
-14 5 -14 10 0 6 9 10 21 10 11 0 17 -4 14 -10z m-1515 -10 c8 -5 12 -12 9
-15 -8 -8 -39 5 -39 16 0 11 11 11 30 -1z m677 -152 c-2 -24 -4 -5 -4 42 0 47
2 66 4 43 2 -24 2 -62 0 -85z m-230 -20 c-2 -13 -4 -3 -4 22 0 25 2 35 4 23 2
-13 2 -33 0 -45z m-109 -121 c21 -25 -3 -31 -118 -30 l-105 0 87 -6 c47 -3 90
-10 95 -15 5 -5 0 -6 -10 -3 -10 4 -105 8 -210 9 -106 1 -174 4 -152 7 l40 5
-45 6 c-25 4 55 8 177 8 156 2 224 5 229 14 5 8 0 9 -17 5 -13 -4 -117 -7
-231 -7 l-208 0 -1 -257 c0 -142 -4 -280 -7 -308 -4 -27 -5 79 -3 238 3 259 2
287 -13 287 -10 0 -16 9 -16 25 l0 25 238 2 237 3 4 50 4 50 6 -46 c4 -26 12
-54 19 -62z m14 51 c2 -20 0 -34 -4 -32 -4 3 -8 24 -7 47 1 47 6 41 11 -15z
m-1184 -25 c-10 -2 -26 -2 -35 0 -10 3 -2 5 17 5 19 0 27 -2 18 -5z m-88 -19
c0 -17 -22 -14 -28 4 -2 7 3 12 12 12 9 0 16 -7 16 -16z m1413 -38 c18 -3 18
-4 -3 -3 -19 2 -25 8 -26 27 -1 20 0 21 3 3 2 -12 14 -24 26 -27z m184 -8 c-2
-13 -4 -3 -4 22 0 25 2 35 4 23 2 -13 2 -33 0 -45z m-5459 35 c-17 -4 -18 -51
-21 -751 l-2 -747 -3 753 -2 752 23 -1 c16 -1 18 -2 5 -6z m602 0 c0 -5 -98
-7 -217 -5 -358 4 -386 8 -75 10 160 1 292 -1 292 -5z m3165 -3 c-27 -12 -43
-12 -25 0 8 5 22 9 30 9 10 0 8 -3 -5 -9z m378 3 c-7 -2 -19 -2 -25 0 -7 3 -2
5 12 5 14 0 19 -2 13 -5z m1334 -15 c-3 -8 -6 -5 -6 6 -1 11 2 17 5 13 3 -3 4
-12 1 -19z m-4787 -3 c32 -12 33 -14 10 -14 -15 -1 -30 3 -35 8 -6 5 -21 11
-35 14 l-25 4 25 1 c14 0 41 -6 60 -13z m3547 -11 c18 -8 33 -16 33 -18 0 -8
-91 -3 -96 5 -3 6 6 7 23 4 l28 -6 -25 15 c-14 8 -27 11 -30 7 -3 -4 -20 -11
-39 -15 -39 -7 -38 -4 4 18 30 16 42 15 102 -10z m-3899 9 c-49 -2 -127 -2
-175 0 -49 1 -9 3 87 3 96 0 136 -2 88 -3z m210 0 c-10 -2 -26 -2 -35 0 -10 3
-2 5 17 5 19 0 27 -2 18 -5z m3232 0 c0 -10 -49 -33 -70 -33 -9 0 -17 6 -17
13 0 9 11 13 29 12 16 -1 31 2 34 7 6 10 24 11 24 1z m-3152 -10 c-10 -2 -26
-2 -35 0 -10 3 -2 5 17 5 19 0 27 -2 18 -5z m4512 -2 c0 -12 -39 -25 -47 -17
-4 3 1 6 10 6 10 0 17 5 17 10 0 6 5 10 10 10 6 0 10 -4 10 -9z m770 -1 c0 -5
-7 -7 -15 -4 -8 4 -15 8 -15 10 0 2 7 4 15 4 8 0 15 -4 15 -10z m-5687 -7
c-24 -2 -62 -2 -85 0 -24 2 -5 4 42 4 47 0 66 -2 43 -4z m310 0 c-7 -2 -19 -2
-25 0 -7 3 -2 5 12 5 14 0 19 -2 13 -5z m212 -3 c-3 -5 -12 -10 -18 -10 -7 0
-6 4 3 10 19 12 23 12 15 0z m2930 0 c-3 -5 -11 -10 -16 -10 -6 0 -7 5 -4 10
3 6 11 10 16 10 6 0 7 -4 4 -10z m1660 0 c13 -6 15 -9 5 -9 -8 0 -22 4 -30 9
-18 12 -2 12 25 0z m-4698 -6 c-3 -3 -12 -4 -19 -1 -8 3 -5 6 6 6 11 1 17 -2
13 -5z m3520 0 c-3 -3 -12 -4 -19 -1 -8 3 -5 6 6 6 11 1 17 -2 13 -5z m-4160
-1071 c-1 -197 -2 -36 -2 357 0 393 1 554 2 358 2 -197 2 -519 0 -715z m4620
25 c-1 -194 -2 -38 -2 347 0 385 1 544 2 353 2 -190 2 -505 0 -700z m1960
1005 c-3 -10 -5 -4 -5 12 0 17 2 24 5 18 2 -7 2 -21 0 -30z m-2259 -39 c-3 -3
-13 3 -23 12 -12 13 -19 14 -24 5 -4 -7 -8 1 -8 19 l0 30 30 -30 c16 -17 27
-33 25 -36z m2380 46 c-12 -19 -28 -27 -28 -14 0 6 30 33 38 34 1 0 -3 -9 -10
-20z m-5821 -35 c-2 -5 -12 -11 -23 -12 -10 -2 -13 0 -6 3 18 8 15 22 -8 29
-11 3 -20 11 -20 16 0 6 14 2 30 -8 17 -9 29 -22 27 -28z m2739 21 c2 -20 -1
-22 -11 -13 -9 8 -10 16 -3 25 13 16 13 16 14 -12z m704 14 c0 -5 -2 -10 -4
-10 -3 0 -8 5 -11 10 -3 6 -1 10 4 10 6 0 11 -4 11 -10z m1089 -34 c-2 -20 -2
-20 -6 2 -2 12 -9 22 -14 22 -5 0 -9 5 -9 11 0 8 5 8 15 -1 8 -7 14 -22 14
-34z m-1028 -27 l20 -28 -21 -21 c-12 -12 -25 -19 -28 -15 -4 4 1 13 11 20 19
14 16 55 -4 55 -6 0 -8 -9 -4 -19 3 -11 1 -23 -6 -27 -8 -5 -10 2 -7 25 3 18
1 34 -4 37 -4 3 -8 10 -8 16 0 14 25 -8 51 -43z m2341 29 c-7 -7 -12 -8 -12
-2 0 14 12 26 19 19 2 -3 -1 -11 -7 -17z m-3139 -16 c-18 -5 -27 3 -18 17 4 7
10 7 20 -2 11 -10 11 -13 -2 -15z m1844 6 c-3 -8 -6 -5 -6 6 -1 11 2 17 5 13
3 -3 4 -12 1 -19z m27 6 c3 -8 2 -12 -4 -9 -6 3 -10 10 -10 16 0 14 7 11 14
-7z m1226 -15 c-12 -9 -11 -10 8 -6 12 3 20 1 16 -4 -7 -12 -76 -11 -94 2 -11
8 -7 9 17 4 18 -4 34 -2 38 4 3 6 12 11 18 11 7 0 6 -4 -3 -11z m-2773 -5 c-3
-3 -12 -4 -19 -1 -8 3 -5 6 6 6 11 1 17 -2 13 -5z m106 -1 c-7 -2 -21 -2 -30
0 -10 3 -4 5 12 5 17 0 24 -2 18 -5z m54 1 c-3 -3 -12 -4 -19 -1 -8 3 -5 6 6
6 11 1 17 -2 13 -5z m-541 -40 c-10 -14 -15 -29 -11 -32 3 -4 10 0 15 8 13 20
12 7 -1 -27 l-12 -28 -8 29 c-6 21 -4 37 8 57 9 16 19 26 21 24 3 -2 -3 -16
-12 -31z m504 22 c8 -2 -16 -4 -55 -5 -38 0 -65 3 -58 7 11 7 77 6 113 -2z
m-3084 -23 c16 -22 17 -33 4 -33 -5 0 -10 7 -10 15 0 20 -17 19 -29 -2 -9 -15
-10 -15 -11 -2 0 14 18 39 28 39 3 0 11 -8 18 -17z m2941 11 c-3 -3 -12 -4
-19 -1 -8 3 -5 6 6 6 11 1 17 -2 13 -5z m203 -4 c24 -15 7 -19 -20 -5 -15 8
-19 14 -10 14 8 1 22 -3 30 -9z m-163 -6 c-3 -3 -12 -4 -19 -1 -8 3 -5 6 6 6
11 1 17 -2 13 -5z m46 -1 c-7 -2 -19 -2 -25 0 -7 3 -2 5 12 5 14 0 19 -2 13
-5z m62 -3 l20 -9 -20 0 c-11 0 -27 4 -35 9 -13 9 -13 10 0 9 8 0 24 -4 35 -9z
m-155 -4 c0 -3 -4 -8 -10 -11 -5 -3 -10 -1 -10 4 0 6 5 11 10 11 6 0 10 -2 10
-4z m535 -16 c-3 -5 -12 -10 -18 -10 -7 0 -6 4 3 10 19 12 23 12 15 0z m-4199
-64 l24 -6 0 -210 c0 -115 -3 -211 -7 -213 -5 -3 -7 88 -5 201 l3 207 -23 10
c-15 6 -23 19 -24 35 -1 20 0 21 3 3 2 -12 14 -24 29 -27z m10 40 c16 -17 18
-26 4 -26 -5 0 -14 9 -20 20 -12 23 -5 26 16 6z m440 -15 c-4 -6 -13 -11 -19
-11 -8 0 -7 3 2 9 8 5 10 14 6 22 -6 11 -5 11 5 2 7 -6 9 -16 6 -22z m3073 20
c11 -7 10 -13 -6 -30 l-20 -22 -6 22 c-9 35 4 48 32 30z m81 5 c0 -7 -40 -14
-44 -7 -3 4 6 8 20 9 13 1 24 0 24 -2z m326 -17 l23 -21 -6 23 c-4 14 -2 21 3
16 5 -5 9 -26 10 -47 l0 -39 -24 35 c-13 19 -33 39 -45 44 -20 8 -20 9 -3 9
11 1 30 -9 42 -20z m691 -11 c-3 -7 -5 -2 -5 12 0 14 2 19 5 13 2 -7 2 -19 0
-25z m423 22 c13 -9 13 -10 0 -9 -8 1 -26 5 -40 9 l-25 8 25 1 c14 0 32 -4 40
-9z m50 -15 c0 -7 7 -16 16 -19 9 -4 15 -9 12 -11 -6 -6 -58 18 -58 28 0 4 5
7 11 7 5 0 7 5 3 12 -4 7 -3 8 4 4 7 -4 12 -13 12 -21z m40 15 c0 -5 -4 -10
-10 -10 -5 0 -10 5 -10 10 0 6 5 10 10 10 6 0 10 -4 10 -10z m-4723 -6 c-3 -3
-12 -4 -19 -1 -8 3 -5 6 6 6 11 1 17 -2 13 -5z m2858 -33 c-3 -12 -11 -19 -16
-16 -5 4 -3 14 3 25 15 24 22 19 13 -9z m960 2 c3 -15 8 -66 10 -113 l3 -85
-9 80 c-6 44 -14 95 -18 113 -5 17 -6 32 -1 32 4 0 11 -12 15 -27z m-3717 -13
c-3 -17 -1 -33 4 -36 4 -3 8 -13 8 -22 0 -12 -4 -9 -14 9 -7 14 -12 36 -10 50
3 30 3 29 10 29 4 0 4 -14 2 -30z m277 -21 c9 -28 15 -53 12 -56 -3 -3 -11 14
-17 37 -6 23 -14 48 -17 56 -3 8 -3 14 0 14 3 0 13 -23 22 -51z m3852 29 c-3
-8 -6 -5 -6 6 -1 11 2 17 5 13 3 -3 4 -12 1 -19z m784 -40 l-8 -22 -5 22 c-4
12 -4 32 0 44 l5 22 8 -22 c5 -12 5 -32 0 -44z m-4946 42 c3 -5 2 -10 -4 -10
-5 0 -13 5 -16 10 -3 6 -2 10 4 10 5 0 13 -4 16 -10z m3037 -32 c-11 -18 -22
-40 -25 -48 -3 -8 -4 1 -3 21 0 22 5 35 12 32 6 -2 14 3 17 11 4 9 9 16 13 16
3 0 -3 -15 -14 -32z m1107 -76 c-2 -96 -6 -86 -11 25 -2 39 0 69 4 67 4 -3 7
-44 7 -92z m-4652 21 c-2 -16 -4 -5 -4 22 0 28 2 40 4 28 2 -13 2 -35 0 -50z
m4251 -83 l-1 -45 -7 50 c-5 28 -8 73 -8 100 l1 50 7 -55 c5 -30 8 -75 8 -100z
m938 113 l3 -28 -14 25 c-7 14 -11 28 -8 33 8 13 16 0 19 -30z m-5359 -695
c-1 -134 -2 -25 -2 242 0 267 1 376 2 243 2 -134 2 -352 0 -485z m190 660 c-2
-13 -4 -3 -4 22 0 25 2 35 4 23 2 -13 2 -33 0 -45z m3252 25 c-1 -21 -2 -57
-1 -80 2 -41 3 -42 42 -46 l40 -4 -42 1 -43 1 -6 50 c-6 48 -1 115 8 115 2 0
3 -17 2 -37z m1398 -25 c-2 -13 -4 -3 -4 22 0 25 2 35 4 23 2 -13 2 -33 0 -45z
m-3852 -58 l3 -45 -7 45 c-6 36 -8 40 -12 20 -3 -14 -6 2 -6 35 -1 56 0 58 9
25 6 -19 11 -55 13 -80z m4663 40 l0 -25 -8 25 c-4 14 -8 36 -8 50 l0 25 8
-25 c4 -14 8 -36 8 -50z m-1464 45 c3 -8 1 -15 -4 -15 -6 0 -10 7 -10 15 0 8
2 15 4 15 2 0 6 -7 10 -15z m53 -17 c-3 -7 -5 -2 -5 12 0 14 2 19 5 13 2 -7 2
-19 0 -25z m-7 -48 c0 -13 -1 -13 -10 0 -5 8 -10 22 -10 30 0 13 1 13 10 0 5
-8 10 -22 10 -30z m1402 -18 c3 -20 1 -48 -3 -62 -6 -20 -7 -15 -8 23 -1 27
-6 57 -11 67 -8 16 -7 18 4 14 8 -3 16 -22 18 -42z m-4882 34 c0 -3 -4 -8 -10
-11 -5 -3 -10 -1 -10 4 0 6 5 11 10 11 6 0 10 -2 10 -4z m257 -103 c-2 -21 -4
-4 -4 37 0 41 2 58 4 38 2 -21 2 -55 0 -75z m2651 65 c-3 -39 -6 -43 -30 -46
-27 -3 -28 -2 -26 40 l1 43 4 -37 c6 -54 33 -52 33 2 0 22 5 40 11 40 6 0 9
-17 7 -42z m551 -27 c0 -12 -2 -12 -8 4 -8 19 -8 19 -20 0 -11 -18 -12 -18 -7
-2 3 10 6 31 6 45 l0 27 15 -29 c8 -15 15 -36 14 -45z m648 7 c-2 -13 -4 -3
-4 22 0 25 2 35 4 23 2 -13 2 -33 0 -45z m553 52 c0 -5 -2 -10 -4 -10 -3 0 -8
5 -11 10 -3 6 -1 10 4 10 6 0 11 -4 11 -10z m22 -20 c-2 -16 -6 -30 -8 -30 -2
0 -4 14 -4 30 0 17 4 30 8 30 5 0 7 -13 4 -30z m-4638 -35 c5 -29 4 -36 -3
-25 -6 8 -11 28 -11 44 0 39 6 31 14 -19z m4593 8 c-3 -10 -5 -4 -5 12 0 17 2
24 5 18 2 -7 2 -21 0 -30z m-4617 -16 c0 -5 -7 -2 -15 7 -8 8 -15 20 -15 27 0
14 29 -20 30 -34z m849 29 c-10 -9 -139 -15 -134 -6 3 6 36 10 72 10 37 0 64
-2 62 -4z m104 -3 c-7 -2 -21 -2 -30 0 -10 3 -4 5 12 5 17 0 24 -2 18 -5z
m787 0 c0 -5 -46 -7 -102 -5 -156 4 -168 9 -25 11 70 0 127 -2 127 -6z m332 0
c-40 -2 -70 -8 -67 -12 2 -5 24 -7 47 -4 24 3 53 1 65 -4 13 -5 -25 -8 -102
-8 -112 0 -145 10 -65 19 17 2 34 6 37 10 4 3 40 5 82 4 l76 -2 -73 -3z m575
-25 c-3 -7 -5 -2 -5 12 0 14 2 19 5 13 2 -7 2 -19 0 -25z m2625 -345 c2 -291
0 -381 -9 -393 -9 -10 -13 -10 -13 -2 0 7 3 12 8 12 4 0 6 162 4 360 -2 240
-6 360 -13 360 -7 0 -9 -110 -7 -341 2 -187 0 -330 -4 -317 -3 13 -6 165 -7
339 l-1 316 -82 11 -83 10 98 -2 c53 -1 97 2 97 6 0 4 -57 9 -127 11 l-128 3
132 2 133 2 2 -377z m698 370 c0 -5 -39 -7 -87 -5 -163 5 -179 8 -45 10 72 1
132 -1 132 -5z m580 -3 c-34 -5 -21 -7 55 -8 64 0 93 3 80 8 -18 8 -17 9 8 9
19 1 26 -3 21 -11 -5 -8 1 -9 22 -5 16 3 43 -1 59 -8 24 -11 26 -14 10 -14
-12 -1 -27 5 -34 12 -8 7 -15 8 -17 2 -4 -11 -177 -12 -239 -1 -30 5 -36 4
-25 -4 11 -8 6 -9 -22 -4 -31 5 -38 3 -38 -10 0 -9 -5 -16 -11 -16 -5 0 -7 5
-4 10 3 6 0 10 -7 11 -33 3 102 38 142 37 l45 -1 -45 -7z m-5514 -9 c5 -5 20
-11 34 -13 14 -3 -52 -4 -147 -4 -106 1 -165 4 -156 10 9 5 73 7 142 4 69 -3
115 -2 101 2 -21 7 -22 8 -4 9 11 1 24 -3 30 -8z m1179 -7 c26 -12 27 -14 5
-9 -14 2 -35 5 -47 5 -13 0 -23 5 -23 10 0 14 30 12 65 -6z m2628 -57 c2 -32
0 -52 -4 -45 -5 7 -8 38 -8 68 1 66 6 56 12 -23z m-4127 50 c3 -3 -22 -4 -55
-4 -35 1 -54 5 -44 9 20 7 90 4 99 -5z m1012 0 c6 0 12 -3 12 -6 0 -3 -45 -4
-100 -3 l-100 4 -2 -244 -3 -243 -2 239 c-2 160 -7 244 -15 253 -9 12 6 13 93
7 57 -3 110 -6 117 -7z m3297 -331 c0 -189 -3 -342 -7 -339 -5 2 -8 157 -8
344 0 186 3 339 8 339 4 0 7 -155 7 -344z m30 -26 c0 -204 -3 -370 -7 -370 -5
0 -8 167 -8 370 0 204 3 370 8 370 4 0 7 -167 7 -370z m895 360 c0 -11 -217
-7 -228 4 -3 3 47 6 111 6 74 0 117 -4 117 -10z m-6533 -182 c-2 -35 -3 -7 -3
62 0 69 1 97 3 63 2 -35 2 -91 0 -125z m5227 50 c-3 -10 -14 -18 -25 -18 -23
0 -25 13 -4 30 10 8 15 32 16 69 l2 56 8 -60 c4 -33 6 -68 3 -77z m1323 -481
c-1 -111 -2 -17 -2 208 0 226 1 316 2 202 2 -115 2 -299 0 -410z m-4794 560
c16 -10 26 -22 23 -25 -3 -3 -15 3 -26 13 -12 11 -20 13 -20 6 0 -7 -9 -9 -26
-5 -17 4 -29 2 -35 -7 -4 -7 -11 -10 -14 -7 -14 13 19 34 49 31 l31 -3 -27 11
c-16 6 -28 15 -28 20 0 11 29 -3 73 -34z m324 -319 c-1 -68 -3 -13 -3 122 0
135 2 190 3 123 2 -68 2 -178 0 -245z m2570 300 c-2 -13 -4 -3 -4 22 0 25 2
35 4 23 2 -13 2 -33 0 -45z m1703 22 c0 -22 -4 -40 -10 -40 -5 0 -10 18 -10
40 0 22 5 40 10 40 6 0 10 -18 10 -40z m-5740 -53 c0 -5 -4 -5 -10 -2 -5 3
-15 -5 -22 -19 -6 -14 -18 -26 -26 -26 -10 0 -12 5 -6 18 4 9 7 31 6 47 0 25
1 27 8 10 7 -16 9 -11 10 20 l1 40 19 -40 c11 -22 19 -44 20 -48z m546 76 c-4
-5 -22 -13 -39 -19 -18 -7 -31 -17 -29 -24 2 -8 -3 -10 -13 -7 -17 7 -22 -18
-5 -28 5 -3 13 -20 18 -38 6 -24 14 -32 32 -32 13 0 25 -6 28 -13 2 -6 -4 -12
-13 -12 -9 0 -13 -5 -10 -10 4 -6 12 -7 18 -3 7 4 17 8 22 9 6 1 24 8 40 15
17 6 41 13 55 15 14 2 5 -4 -20 -13 -25 -9 -59 -24 -77 -34 l-32 -18 -22 37
c-13 20 -34 57 -47 81 l-24 43 24 17 c34 24 112 52 94 34z m2079 -3 c3 -5 1
-10 -4 -10 -6 0 -11 5 -11 10 0 6 2 10 4 10 3 0 8 -4 11 -10z m4219 4 c9 -3
16 -10 16 -15 0 -14 -26 -10 -40 6 -13 16 -3 20 24 9z m-6660 -46 c-3 -17 -8
-55 -9 -85 -6 -87 -12 -71 -12 31 0 77 2 93 14 89 10 -4 12 -14 7 -35z m1651
11 c1 -23 -3 -25 -37 -23 -40 2 -55 -16 -41 -52 6 -17 5 -17 -10 -6 -27 22 2
77 36 66 13 -4 17 -2 12 5 -8 14 14 43 29 38 6 -2 11 -15 11 -28z m439 25 c21
-8 21 -24 0 -24 -9 0 -12 5 -8 12 5 8 2 9 -10 5 -10 -4 -15 -3 -11 3 7 12 8
12 29 4z m499 -1 c-23 -2 -64 -2 -90 0 -26 2 -7 3 42 3 50 0 71 -1 48 -3z m80
0 c-7 -2 -19 -2 -25 0 -7 3 -2 5 12 5 14 0 19 -2 13 -5z m3446 -23 l-24 -20
33 6 c22 5 32 3 32 -6 0 -7 -7 -10 -15 -6 -8 3 -15 2 -15 -2 0 -5 -15 -6 -34
-4 -27 3 -37 -1 -45 -16 -8 -15 -8 -21 0 -24 8 -3 5 -10 -6 -21 -18 -18 -36
-19 -42 -1 -4 11 40 56 92 94 44 32 62 32 24 0z m-2687 -35 c-5 -10 -12 -11
-22 -5 -13 8 -12 10 3 10 14 0 16 6 12 28 -5 26 -5 26 5 4 5 -13 7 -30 2 -37z
m1222 -50 c-11 -40 -19 -53 -25 -44 -4 7 -4 16 0 19 12 8 31 69 32 104 2 29 2
29 6 4 2 -14 -3 -52 -13 -83z m1981 85 c3 -5 1 -10 -4 -10 -6 0 -11 5 -11 10
0 6 2 10 4 10 3 0 8 -4 11 -10z m112 -23 c4 -6 -6 -4 -21 7 -22 14 -28 15 -23
4 4 -11 -1 -14 -19 -10 -30 5 -30 10 -1 21 23 9 50 0 64 -22z m-6387 13 c0 -5
-12 -10 -26 -10 -14 0 -23 4 -19 10 3 6 15 10 26 10 10 0 19 -4 19 -10z m1809
-20 c19 -17 31 -33 28 -36 -3 -4 -18 7 -32 24 -23 27 -29 30 -49 20 -17 -7
-29 -7 -42 1 -16 10 -15 10 7 5 15 -3 30 -1 33 5 10 16 18 14 55 -19z m-1242
4 c-3 -3 -12 -4 -19 -1 -8 3 -5 6 6 6 11 1 17 -2 13 -5z m2252 -34 c0 -10 -3
-8 -9 5 -12 27 -12 43 0 25 5 -8 9 -22 9 -30z m-3992 -32 c-2 -13 -4 -3 -4 22
0 25 2 35 4 23 2 -13 2 -33 0 -45z m830 30 c-3 -7 -5 -2 -5 12 0 14 2 19 5 13
2 -7 2 -19 0 -25z m3834 -88 l6 45 -1 -45 c-2 -82 -21 -48 -22 40 l-1 85 6
-85 c6 -75 7 -80 12 -40z m26 58 c-2 -13 -4 -3 -4 22 0 25 2 35 4 23 2 -13 2
-33 0 -45z m980 -60 c-2 -24 -4 -5 -4 42 0 47 2 66 4 43 2 -24 2 -62 0 -85z
m720 0 c-2 -24 -4 -5 -4 42 0 47 2 66 4 43 2 -24 2 -62 0 -85z m791 105 c-7
-7 -23 -10 -36 -7 -33 9 -26 20 13 20 29 0 33 -2 23 -13z m100 10 c-10 -2 -28
-2 -40 0 -13 2 -5 4 17 4 22 1 32 -1 23 -4z m-3078 -8 c0 -3 -4 -14 -10 -25
-5 -11 -14 -29 -20 -40 -17 -34 -11 -46 10 -20 16 20 19 21 14 5 -21 -61 -47
-47 -37 20 6 41 19 65 34 65 5 0 9 -2 9 -5z m3149 -11 c2 -2 2 -6 0 -9 -8 -7
-49 7 -49 17 0 8 38 2 49 -8z m-3379 -36 c0 -32 -15 -19 -17 15 -2 23 0 28 7
17 5 -8 10 -23 10 -32z m3283 35 c-13 -2 -33 -2 -45 0 -13 2 -3 4 22 4 25 0
35 -2 23 -4z m-4263 -23 c15 -21 47 -29 34 -8 -4 7 -3 8 4 4 18 -11 14 -26 -6
-26 -18 0 -62 31 -62 44 0 13 16 5 30 -14z m1229 -6 c-14 -18 -24 -11 -15 11
3 9 11 13 16 10 8 -5 7 -11 -1 -21z m1218 -6 c-3 -7 -5 -2 -5 12 0 14 2 19 5
13 2 -7 2 -19 0 -25z m1714 22 c5 0 9 -4 9 -10 0 -15 -20 -12 -38 7 -16 16
-16 16 1 10 10 -4 23 -7 28 -7z m97 -7 c-16 -2 -40 -2 -55 0 -16 2 -3 4 27 4
30 0 43 -2 28 -4z m89 -10 c2 -6 -7 -8 -22 -5 -35 6 -42 21 -8 18 15 -2 29 -8
30 -13z m-3406 -16 c-10 -9 -11 -8 -5 6 3 10 9 15 12 12 3 -3 0 -11 -7 -18z
m3708 -18 c13 -22 21 -42 19 -44 -2 -2 -12 11 -23 30 -20 38 -35 45 -36 18 0
-11 -2 -13 -6 -5 -6 15 3 42 15 42 5 0 19 -18 31 -41z m-5756 -4 c20 -41 20
-45 8 -45 -5 0 -11 8 -15 18 -3 9 -10 27 -16 40 -16 37 5 25 23 -13z m-1343
10 c0 -20 -47 -65 -68 -64 -14 0 -14 2 3 10 11 6 29 23 40 40 23 33 25 34 25
14z m660 1 c0 -3 -4 -8 -10 -11 -5 -3 -10 -1 -10 4 0 6 5 11 10 11 6 0 10 -2
10 -4z m408 -23 c23 -15 42 -31 42 -36 0 -5 -16 2 -35 17 -19 14 -44 30 -57
36 -14 5 -17 9 -8 9 9 1 35 -11 58 -26z m58 -5 c1 -24 0 -25 -14 -10 -9 9 -22
22 -29 28 -10 9 -7 11 15 10 22 -1 27 -6 28 -28z m815 23 c-8 -5 -10 -14 -6
-22 6 -11 5 -11 -5 -2 -14 12 -6 33 13 33 8 0 7 -3 -2 -9z m49 -1 c0 -5 -8
-10 -17 -10 -15 0 -16 2 -3 10 19 12 20 12 20 0z m147 4 c-3 -3 -12 -4 -19 -1
-8 3 -5 6 6 6 11 1 17 -2 13 -5z m110 -14 c3 -10 2 -11 -4 -4 -4 6 -15 14 -23
17 -11 5 -9 6 4 4 11 -1 21 -9 23 -17z m2363 -25 c-18 -19 -36 -33 -38 -30 -6
5 61 73 67 68 3 -2 -11 -19 -29 -38z m1200 5 c0 -22 5 -40 10 -40 6 0 10 -18
10 -40 0 -22 -4 -40 -10 -40 -5 0 -10 18 -10 40 0 22 -4 40 -10 40 -5 0 -10
18 -10 40 0 22 5 40 10 40 6 0 10 -18 10 -40z m718 36 c-2 -1 -10 -7 -19 -14
-13 -10 -19 -10 -28 1 -8 11 -5 14 19 14 17 0 29 -1 28 -1z m-4948 -659 l1
-647 104 0 c90 0 104 2 108 18 4 13 5 11 6 -5 1 -23 -1 -23 -124 -23 -104 0
-125 2 -125 15 0 8 5 15 10 15 7 0 10 221 10 642 0 353 2 639 5 637 2 -3 5
-296 5 -652z m630 638 c13 -16 0 -21 -15 -6 -6 5 -19 11 -30 14 -16 4 -14 5 6
6 15 0 32 -6 39 -14z m340 -50 c0 -5 -9 4 -20 20 -11 17 -20 35 -20 40 0 6 9
-3 20 -20 11 -16 20 -34 20 -40z m-668 20 c3 -24 -1 -36 -11 -40 -9 -3 -12 -3
-9 0 4 4 3 17 -2 30 -5 14 -5 26 3 34 15 15 14 16 19 -24z m637 -20 c0 -5 -6
1 -14 15 -8 14 -14 30 -14 35 0 6 6 -1 14 -15 8 -14 14 -29 14 -35z m847 40
c7 -16 -12 -45 -29 -45 -5 0 -3 8 6 18 27 30 19 38 -10 11 l-26 -24 19 27 c22
31 32 34 40 13z m3072 -49 c10 4 13 2 7 -3 -6 -4 -15 -18 -20 -31 -8 -18 -10
-10 -11 40 0 35 1 46 3 26 3 -29 8 -36 21 -32z m451 30 c-3 -3 -11 5 -18 17
-13 21 -12 21 5 5 10 -10 16 -20 13 -22z m-5592 2 c-3 -8 -6 -5 -6 6 -1 11 2
17 5 13 3 -3 4 -12 1 -19z m3338 -8 c-10 -11 -23 -20 -29 -20 -6 0 1 11 14 24
30 28 41 25 15 -4z m1607 -6 c-9 -16 -10 -14 -9 8 1 15 6 23 11 18 4 -4 4 -16
-2 -26z m228 27 c0 -5 -7 -14 -15 -21 -12 -10 -15 -10 -15 2 0 8 3 18 7 21 9
10 23 9 23 -2z m-6463 -26 c-4 -8 -13 -15 -22 -15 -13 0 -12 3 3 18 19 21 27
20 19 -3z m1903 10 c-7 -9 -15 -13 -17 -11 -7 7 7 26 19 26 6 0 6 -6 -2 -15z
m-580 -15 c0 -5 -4 -10 -10 -10 -5 0 -10 5 -10 10 0 6 5 10 10 10 6 0 10 -4
10 -10z m-1116 -37 c-22 -35 -44 -57 -44 -46 0 9 52 73 59 73 2 0 -5 -12 -15
-27z m2080 11 c9 -24 2 -26 -12 -4 -7 11 -8 20 -3 20 5 0 12 -7 15 -16z m31
-30 c-4 -22 -2 -34 5 -34 6 0 8 -5 5 -11 -4 -6 -10 -8 -13 -4 -10 9 -8 94 1
88 5 -3 6 -21 2 -39z m1235 25 c0 -14 -17 -10 -23 5 -4 10 -1 13 9 9 7 -3 14
-9 14 -14z m30 9 c-1 -15 -45 -68 -56 -68 -4 0 5 13 20 29 16 16 25 34 22 40
-4 6 -2 11 3 11 6 0 11 -6 11 -12z m698 -20 l127 -2 -125 -6 c-127 -5 -150 -1
-150 29 1 14 2 14 11 -1 9 -16 28 -18 137 -20z m582 22 c0 -3 -9 -16 -20 -30
-17 -21 -21 -23 -30 -10 -5 8 -10 20 -10 25 0 6 4 4 9 -4 5 -7 14 -10 20 -7
16 10 13 24 -6 29 -10 3 -6 4 10 4 15 -1 27 -4 27 -7z m-773 -32 c-3 -7 -5 -2
-5 12 0 14 2 19 5 13 2 -7 2 -19 0 -25z m-4247 13 c0 -4 -11 -6 -25 -3 -14 2
-25 6 -25 8 0 2 11 4 25 4 14 0 25 -4 25 -9z m1277 -13 c-3 -8 -6 -5 -6 6 -1
11 2 17 5 13 3 -3 4 -12 1 -19z m250 0 c-3 -8 -6 -5 -6 6 -1 11 2 17 5 13 3
-3 4 -12 1 -19z m1909 -25 c-4 -10 -14 -13 -30 -9 -32 8 -59 -18 -50 -47 6
-19 5 -20 -9 -8 -14 11 -15 16 -3 33 19 26 56 52 56 39 0 -6 7 -11 15 -11 8 0
15 7 15 15 0 8 -5 15 -11 15 -5 0 -7 5 -3 11 10 16 27 -18 20 -38z m1204 43
c0 -2 -11 -6 -25 -8 -14 -3 -25 -1 -25 3 0 5 11 9 25 9 14 0 25 -2 25 -4z
m2477 -18 c-3 -8 -6 -5 -6 6 -1 11 2 17 5 13 3 -3 4 -12 1 -19z m192 -28 c0
-9 -4 -8 -9 5 -5 11 -9 27 -9 35 0 9 4 8 9 -5 5 -11 9 -27 9 -35z m-7431 33
c-38 -2 -98 -2 -135 0 -38 2 -7 3 67 3 74 0 105 -1 68 -3z m6470 -18 c-6 -14
-13 -23 -16 -21 -7 7 9 46 18 46 5 0 4 -11 -2 -25z m748 1 c6 -13 8 -30 4 -36
-5 -8 -12 0 -19 21 -13 38 -13 39 -3 39 4 0 12 -11 18 -24z m-7112 2 c10 -10
-19 -13 -146 -14 -87 0 -158 3 -158 7 0 5 64 10 143 12 78 1 143 4 145 5 2 1
9 -4 16 -10z m4656 -3 c0 -8 -7 -15 -15 -15 -9 0 -12 6 -9 15 4 8 10 15 15 15
5 0 9 -7 9 -15z m-3130 -11 c0 -8 -4 -12 -10 -9 -5 3 -10 10 -10 16 0 5 5 9
10 9 6 0 10 -7 10 -16z m3028 9 c-32 -2 -58 -7 -58 -12 0 -8 -57 -7 -80 2 -8
3 -28 8 -45 10 -16 2 31 4 105 4 74 -1 109 -2 78 -4z m-4883 -13 c3 -5 1 -10
-4 -10 -6 0 -11 5 -11 10 0 6 2 10 4 10 3 0 8 -4 11 -10z m3098 -185 c2 -66 0
-106 -4 -90 l-7 30 -2 -35 -2 -35 -9 40 c-4 22 -7 65 -7 95 l1 55 8 -65 c5
-48 6 -31 5 65 -2 80 0 117 5 95 4 -20 9 -89 12 -155z m2217 181 c0 -6 -90
-60 -113 -69 -11 -4 -16 -3 -12 3 3 6 14 10 23 11 11 0 12 3 5 6 -21 8 -15 25
7 18 28 -9 49 6 24 17 -15 7 -14 7 6 4 14 -3 32 -1 40 4 17 11 20 12 20 6z
m-4743 -12 c-3 -3 -12 -4 -19 -1 -8 3 -5 6 6 6 11 1 17 -2 13 -5z m1083 -3 c0
-6 -4 -13 -10 -16 -5 -3 -10 1 -10 9 0 9 5 16 10 16 6 0 10 -4 10 -9z m650 -1
c0 -5 -4 -10 -10 -10 -5 0 -10 5 -10 10 0 6 5 10 10 10 6 0 10 -4 10 -10z
m1703 2 c5 -1 5 -7 1 -13 -4 -8 -9 -7 -15 2 -7 11 -11 10 -22 -5 -14 -19 -14
-19 -19 0 -4 16 0 19 21 18 14 0 30 -2 34 -2z m1210 1 c-7 -2 -21 -2 -30 0
-10 3 -4 5 12 5 17 0 24 -2 18 -5z m404 -175 c-2 -35 -3 -7 -3 62 0 69 1 97 3
63 2 -35 2 -91 0 -125z m720 60 c-2 -24 -4 -5 -4 42 0 47 2 66 4 43 2 -24 2
-62 0 -85z m520 85 c-3 -10 -5 -4 -5 12 0 17 2 24 5 18 2 -7 2 -21 0 -30z m30
5 c-3 -7 -5 -2 -5 12 0 14 2 19 5 13 2 -7 2 -19 0 -25z m-6277 -3 c-19 -14
-41 -25 -49 -24 -11 0 -10 3 4 9 12 4 27 15 34 24 7 9 21 16 29 16 10 0 2 -10
-18 -25z m1657 -7 c-3 -7 -5 -2 -5 12 0 14 2 19 5 13 2 -7 2 -19 0 -25z
m-1687 12 c0 -5 -8 -10 -18 -10 -10 0 -28 -7 -40 -16 -12 -8 -22 -12 -22 -9 0
11 26 33 46 38 31 8 34 7 34 -3z m6071 -50 c-5 -25 -9 -35 -10 -24 -1 28 11
92 16 79 1 -6 -1 -30 -6 -55z m-4346 23 c-5 -16 -11 -64 -15 -108 l-7 -80 -1
77 c-1 42 -5 84 -9 94 -4 12 -3 15 5 10 8 -5 12 0 12 13 0 12 5 21 11 21 7 0
9 -9 4 -27z m2865 7 c-14 -10 -27 -17 -29 -15 -8 8 22 35 38 35 12 0 10 -5 -9
-20z m-3490 -10 c0 -11 -4 -20 -10 -20 -5 0 -10 9 -10 20 0 11 5 20 10 20 6 0
10 -9 10 -20z m1170 4 c0 -8 -4 -12 -10 -9 -5 3 -10 10 -10 16 0 5 5 9 10 9 6
0 10 -7 10 -16z m4819 -73 c1 -64 -5 -47 -12 29 -3 39 -2 55 3 40 4 -14 8 -45
9 -69z m-3992 52 c-8 -7 -37 9 -31 19 3 5 12 4 20 -3 8 -6 13 -14 11 -16z
m3950 5 c-3 -8 -6 -5 -6 6 -1 11 2 17 5 13 3 -3 4 -12 1 -19z m-4740 -75 c-1
-70 -2 -80 -8 -48 -6 33 -7 30 -3 -15 2 -30 6 -68 9 -85 5 -25 4 -27 -4 -8
-19 43 -32 175 -20 210 18 56 27 37 26 -54z m2226 67 c3 -13 0 -20 -9 -20 -19
0 -18 -19 3 -44 10 -12 4 -8 -12 7 -23 21 -27 30 -17 36 7 4 12 12 11 17 -5
30 16 33 24 4z m-5123 -10 c0 -5 -4 -10 -10 -10 -5 0 -10 5 -10 10 0 6 5 10
10 10 6 0 10 -4 10 -10z m260 6 c0 -3 -4 -8 -10 -11 -5 -3 -10 -1 -10 4 0 6 5
11 10 11 6 0 10 -2 10 -4z m245 -6 c-11 -5 -27 -9 -35 -9 -9 0 -8 4 5 9 11 5
27 9 35 9 9 0 8 -4 -5 -9z m1382 -412 c-1 -79 -3 -15 -3 142 0 157 2 221 3
143 2 -79 2 -207 0 -285z m2013 403 c0 -4 -5 -12 -12 -19 -9 -9 -9 -12 2 -12
7 0 10 -3 6 -7 -13 -14 -21 -4 -21 26 0 19 4 27 13 24 6 -3 12 -8 12 -12z
m913 12 c-13 -2 -33 -2 -45 0 -13 2 -3 4 22 4 25 0 35 -2 23 -4z m-4660 -10
c-24 -2 -62 -2 -85 0 -24 2 -5 4 42 4 47 0 66 -2 43 -4z m4473 -19 c-4 -9 -9
-15 -11 -12 -3 3 -3 13 1 22 4 9 9 15 11 12 3 -3 3 -13 -1 -22z m259 16 c3 -5
2 -10 -4 -10 -5 0 -13 5 -16 10 -3 6 -2 10 4 10 5 0 13 -4 16 -10z m-3332 -7
c-46 -2 -120 -2 -165 0 -46 1 -9 3 82 3 91 0 128 -2 83 -3z m2073 -40 c-4 -10
-14 -13 -28 -10 -12 3 -31 1 -42 -4 -16 -8 -15 -6 4 10 14 11 27 16 28 11 6
-16 32 -11 32 5 0 8 -5 15 -11 15 -5 0 -7 5 -3 11 10 16 27 -18 20 -38z m1187
40 c-13 -2 -33 -2 -45 0 -13 2 -3 4 22 4 25 0 35 -2 23 -4z m-4788 -13 c-3 -5
-11 -10 -16 -10 -6 0 -7 5 -4 10 3 6 11 10 16 10 6 0 7 -4 4 -10z m1585 -4
c14 -2 -54 -3 -150 -3 -96 0 -188 2 -205 6 -29 6 304 4 355 -3z m3046 -13
c-10 -10 -19 5 -10 18 6 11 8 11 12 0 2 -7 1 -15 -2 -18z m-4418 -8 c-3 -3 -9
2 -12 12 -6 14 -5 15 5 6 7 -7 10 -15 7 -18z m972 21 c0 -4 -95 -36 -107 -35
-4 0 12 9 37 19 43 18 70 24 70 16z m1067 -88 c-2 -18 -4 -4 -4 32 0 36 2 50
4 33 2 -18 2 -48 0 -65z m2456 85 c-13 -2 -33 -2 -45 0 -13 2 -3 4 22 4 25 0
35 -2 23 -4z m135 -12 c3 -8 -1 -12 -9 -9 -7 2 -15 10 -17 17 -3 8 1 12 9 9 7
-2 15 -10 17 -17z m-4398 -1 c-19 -13 -30 -13 -30 0 0 6 10 10 23 10 18 0 19
-2 7 -10z m760 0 c0 -5 -5 -10 -11 -10 -5 0 -7 5 -4 10 3 6 8 10 11 10 2 0 4
-4 4 -10z m3854 -6 c3 -8 2 -12 -4 -9 -6 3 -10 10 -10 16 0 14 7 11 14 -7z
m1563 -91 c-2 -21 -4 -4 -4 37 0 41 2 58 4 38 2 -21 2 -55 0 -75z m-5340 91
c-3 -3 -12 -4 -19 -1 -8 3 -5 6 6 6 11 1 17 -2 13 -5z m266 -1 c-35 -2 -91 -2
-125 0 -35 2 -7 3 62 3 69 0 97 -1 63 -3z m-1565 -99 l-3 -79 -5 87 c-3 48 -1
83 3 79 4 -4 7 -43 5 -87z m1185 89 c-7 -2 -19 -2 -25 0 -7 3 -2 5 12 5 14 0
19 -2 13 -5z m3710 0 c-7 -2 -13 -9 -13 -14 0 -6 5 -7 10 -4 13 8 13 -5 0 -25
-8 -13 -10 -13 -10 2 0 9 -6 19 -12 21 -10 4 -9 8 2 16 8 6 20 10 25 10 6 0 4
-3 -2 -6z m2745 -39 c-3 -27 -4 -26 -9 8 -3 22 -1 34 4 29 5 -5 7 -21 5 -37z
m-7691 -26 c-2 -13 -4 -3 -4 22 0 25 2 35 4 23 2 -13 2 -33 0 -45z m20 -120
c-2 -35 -3 -7 -3 62 0 69 1 97 3 63 2 -35 2 -91 0 -125z m293 138 c0 -12 -5
-7 -19 24 -11 24 -11 24 3 6 9 -11 16 -24 16 -30z m3544 17 c-16 -12 -17 -15
-4 -23 8 -5 12 -10 8 -10 -18 0 -23 6 -23 31 -1 21 3 25 19 21 19 -5 19 -5 0
-19z m786 -466 l-10 -32 5 34 c3 18 6 138 7 265 l3 231 2 -233 c2 -138 -1
-246 -7 -265z m47 191 c-1 -57 -3 -11 -3 102 0 113 2 159 3 103 2 -57 2 -149
0 -205z m-3594 262 c-28 -22 -28 -27 -5 -33 9 -2 2 -4 -15 -3 -18 0 -33 3 -33
5 0 9 65 59 70 54 3 -3 -5 -13 -17 -23z m2807 26 c0 -2 -8 -10 -17 -17 -16
-13 -17 -12 -4 4 13 16 21 21 21 13z m-3310 -62 c0 -6 7 -17 15 -24 8 -7 15
-22 16 -34 0 -12 3 -15 6 -8 3 9 15 -1 33 -28 22 -33 26 -46 17 -55 -8 -9 -18
-10 -29 -4 -24 13 -23 23 3 16 13 -3 19 -1 16 6 -2 7 -12 11 -21 11 -18 -2
-22 11 -6 21 16 10 2 24 -18 19 -13 -4 -17 2 -19 23 0 15 -6 29 -12 31 -6 2
-11 9 -11 17 0 7 -7 18 -15 25 -8 7 -15 20 -15 29 0 12 5 10 20 -9 11 -14 20
-30 20 -36z m3000 22 c0 -5 -7 -3 -15 4 -8 7 -12 17 -9 22 7 10 24 -9 24 -26z
m1634 -51 c-5 -13 -24 -22 -24 -11 0 2 -3 12 -6 20 -5 13 -2 15 12 9 18 -6 18
-6 2 14 -10 11 -18 26 -18 34 0 8 9 -1 20 -18 11 -18 17 -39 14 -48z m-1657
28 c-8 -7 -37 9 -31 19 3 5 12 4 20 -3 8 -6 13 -14 11 -16z m238 -2 c-3 -6
-11 -8 -17 -5 -6 4 -5 9 3 15 16 10 23 4 14 -10z m-300 -22 c-9 -17 -29 -38
-45 -47 -16 -9 -34 -28 -40 -41 -6 -13 -13 -21 -16 -18 -9 9 24 53 49 66 13 7
31 26 41 42 23 39 31 37 11 -2z m1466 13 c-7 -2 -18 1 -23 6 -8 8 -4 9 13 5
13 -4 18 -8 10 -11z m-4587 -67 l5 -20 -15 20 c-9 11 -22 34 -31 50 l-15 30
25 -30 c14 -16 28 -39 31 -50z m3 60 c9 -24 -1 -27 -15 -5 -8 13 -8 20 -2 20
6 0 13 -7 17 -15z m827 1 c-21 -15 -30 -14 -19 3 3 6 14 11 23 11 13 0 13 -2
-4 -14z m121 5 c17 -7 16 -9 -13 -15 -41 -10 -102 -71 -102 -103 0 -14 -4 -22
-10 -18 -7 4 -8 -3 -4 -22 5 -22 4 -26 -6 -16 -13 12 -6 83 8 83 4 0 13 10 21
21 10 17 10 23 0 29 -10 7 -9 11 2 22 27 27 66 34 104 19z m68 2 c-7 -2 -19
-2 -25 0 -7 3 -2 5 12 5 14 0 19 -2 13 -5z m298 -57 c1 -31 -1 -60 -5 -63 -3
-3 -6 24 -6 62 0 82 9 83 11 1z m46 2 c-2 -13 -4 -3 -4 22 0 25 2 35 4 23 2
-13 2 -33 0 -45z m350 -601 c-1 -122 -2 -22 -2 223 0 245 1 345 2 222 2 -122
2 -322 0 -445z m52 -220 c5 -5 43 -6 85 -2 l75 7 4 82 3 81 2 -86 2 -86 -81
-7 c-57 -5 -84 -4 -95 4 -12 11 -14 80 -12 454 l3 441 2 -440 c2 -241 7 -443
12 -448z m1631 864 c0 -4 -5 -12 -12 -19 -9 -9 -9 -12 2 -12 7 0 10 -3 6 -7
-13 -14 -21 -4 -21 26 0 19 4 27 13 24 6 -3 12 -8 12 -12z m1250 -13 c0 -30
-1 -31 -14 -12 -10 13 -11 23 -4 31 15 19 18 16 18 -19z m1888 8 c13 -16 22
-57 11 -50 -5 3 -9 14 -9 25 0 10 -4 20 -10 20 -5 1 -15 2 -22 3 -6 0 -13 6
-15 13 -5 14 33 6 45 -11z m-6361 -8 c-3 -8 -6 -5 -6 6 -1 11 2 17 5 13 3 -3
4 -12 1 -19z m1792 -23 c-1 -16 -2 -16 -9 5 -7 22 -8 23 -9 4 -1 -12 6 -41 14
-64 18 -50 18 -50 6 -50 -8 0 -21 41 -35 112 -4 16 -1 28 7 31 15 5 27 -12 26
-38z m553 5 c-2 -16 -6 -30 -8 -30 -2 0 -4 14 -4 30 0 17 4 30 8 30 5 0 7 -13
4 -30z m-2313 -7 c0 -25 -1 -26 -9 -8 -12 27 -12 35 0 35 6 0 10 -12 9 -27z
m4661 17 c0 -5 -2 -10 -4 -10 -3 0 -8 5 -11 10 -3 6 -1 10 4 10 6 0 11 -4 11
-10z m-4248 -22 c-7 -7 -12 -8 -12 -2 0 14 12 26 19 19 2 -3 -1 -11 -7 -17z
m19 -12 c-15 -18 -27 -156 -13 -165 6 -3 12 -35 14 -69 3 -55 2 -61 -9 -45 -8
10 -10 19 -5 21 10 3 -1 79 -13 90 -4 4 -5 -5 -3 -20 3 -16 2 -28 -2 -28 -11
0 -21 43 -11 50 5 3 11 37 14 75 5 65 27 137 35 114 2 -5 -1 -15 -7 -23z
m5869 24 c0 -5 -2 -10 -4 -10 -3 0 -8 5 -11 10 -3 6 -1 10 4 10 6 0 11 -4 11
-10z m-3385 -19 c-3 -6 -11 -11 -16 -11 -5 0 -4 6 3 14 14 16 24 13 13 -3z
m1821 -88 c-6 -6 -66 86 -66 101 0 6 16 -13 36 -42 20 -30 33 -56 30 -59z
m1371 75 c-3 -7 -5 -2 -5 12 0 14 2 19 5 13 2 -7 2 -19 0 -25z m-1467 12 c0
-5 -7 -10 -16 -10 -8 0 -12 5 -9 10 3 6 10 10 16 10 5 0 9 -4 9 -10z m-200
-44 c0 -5 -7 -1 -15 10 -8 10 -14 24 -14 29 0 6 6 1 14 -9 8 -11 15 -24 15
-30z m-4564 9 c-3 -9 -10 -13 -16 -10 -6 4 -5 11 3 20 15 16 22 11 13 -10z
m1891 3 c-3 -8 -6 -5 -6 6 -1 11 2 17 5 13 3 -3 4 -12 1 -19z m778 -3 c-3 -14
-7 -36 -10 -49 -4 -18 -10 -23 -25 -19 -11 3 -20 0 -20 -6 0 -6 5 -11 11 -11
14 0 3 -46 -18 -74 -13 -18 -14 -18 -9 -3 17 52 19 70 5 65 -8 -3 -14 -15 -13
-27 0 -11 -3 -21 -8 -21 -15 0 -8 47 11 68 10 12 28 22 40 22 18 0 21 6 21 40
0 22 5 40 10 40 6 0 8 -11 5 -25z m565 4 c0 -14 -17 -10 -23 5 -4 10 -1 13 9
9 7 -3 14 -9 14 -14z m1397 6 c8 -8 13 -19 11 -23 -2 -4 -13 3 -25 16 -12 12
-18 22 -12 22 6 0 17 -7 26 -15z m-4110 -17 c-3 -8 -6 -5 -6 6 -1 11 2 17 5
13 3 -3 4 -12 1 -19z m2753 19 c0 -2 -15 -16 -32 -33 l-33 -29 29 33 c28 30
36 37 36 29z m2565 -48 c-8 -37 -43 -99 -56 -99 -14 0 -11 9 15 43 14 18 28
44 31 60 10 38 18 34 10 -4z m402 9 c-3 -8 -6 -5 -6 6 -1 11 2 17 5 13 3 -3 4
-12 1 -19z m-6277 -3 c0 -8 -2 -15 -4 -15 -2 0 -6 7 -10 15 -3 8 -1 15 4 15 6
0 10 -7 10 -15z m1950 -20 c0 -5 -5 -3 -10 5 -5 8 -10 20 -10 25 0 6 5 3 10
-5 5 -8 10 -19 10 -25z m2690 19 c0 -14 -3 -14 -15 -4 -8 7 -15 14 -15 16 0 2
7 4 15 4 8 0 15 -7 15 -16z m224 -17 c7 -6 6 -7 -4 -4 -8 2 -16 12 -17 23 -2
13 -1 15 4 4 3 -8 11 -19 17 -23z m-4317 -44 c-2 -16 -4 -5 -4 22 0 28 2 40 4
28 2 -13 2 -35 0 -50z m763 52 c0 -8 -4 -15 -10 -15 -5 0 -10 7 -10 15 0 8 5
15 10 15 6 0 10 -7 10 -15z m1130 0 c0 -8 -4 -15 -10 -15 -5 0 -7 7 -4 15 4 8
8 15 10 15 2 0 4 -7 4 -15z m2967 -57 c-2 -13 -4 -3 -4 22 0 25 2 35 4 23 2
-13 2 -33 0 -45z m-5367 42 c0 -5 -2 -10 -4 -10 -3 0 -8 5 -11 10 -3 6 -1 10
4 10 6 0 11 -4 11 -10z m560 -15 c0 -8 -4 -17 -10 -20 -6 -4 -10 5 -10 20 0
15 4 24 10 20 6 -3 10 -12 10 -20z m5981 -47 l21 -18 -21 0 c-12 0 -21 6 -21
14 0 8 -9 21 -20 29 -13 9 -18 20 -14 31 5 14 9 12 21 -11 7 -15 23 -36 34
-45z m-6964 -120 c-2 -35 -3 -7 -3 62 0 69 1 97 3 63 2 -35 2 -91 0 -125z
m423 128 c0 -12 -14 5 -31 39 -8 16 -6 15 10 -4 12 -13 21 -28 21 -35z m2875
17 c0 -23 -6 -38 -13 -37 -46 4 -45 3 -18 30 14 15 26 31 26 35 0 5 2 9 3 9 2
0 3 -17 2 -37z m275 16 c0 -14 -17 -10 -23 5 -4 10 -1 13 9 9 7 -3 14 -9 14
-14z m1480 -41 c0 -7 -9 1 -20 17 -26 39 -26 55 0 22 11 -14 20 -31 20 -39z
m527 15 c-3 -10 -5 -2 -5 17 0 19 2 27 5 18 2 -10 2 -26 0 -35z m1129 32 c14
-14 38 -75 29 -75 -2 0 -15 20 -28 45 -26 47 -26 56 -1 30z m-4336 -48 c0 -33
-25 -12 -27 23 -3 32 -2 33 12 14 8 -10 15 -27 15 -37z m447 31 c-3 -8 -6 -5
-6 6 -1 11 2 17 5 13 3 -3 4 -12 1 -19z m793 18 c0 -2 -8 -10 -17 -17 -16 -13
-17 -12 -4 4 13 16 21 21 21 13z m2007 -33 c-3 -10 -5 -4 -5 12 0 17 2 24 5
18 2 -7 2 -21 0 -30z m-4916 -10 c12 -21 36 -56 53 -78 22 -27 26 -37 13 -32
-18 7 -22 0 -9 -21 5 -8 16 -10 28 -5 17 6 18 5 5 -11 -13 -15 -13 -19 0 -27
8 -5 9 -9 3 -9 -15 0 -40 30 -48 58 -4 12 -13 22 -21 22 -7 0 -23 9 -36 20
-19 15 -20 19 -8 20 9 0 19 -6 22 -14 6 -15 47 -29 47 -16 0 10 -26 37 -40 42
-10 3 -16 21 -19 51 -1 4 -6 7 -12 7 -6 0 -9 -6 -6 -12 2 -7 1 -22 -4 -33 -6
-16 -8 -14 -8 12 -1 29 7 63 14 63 2 0 14 -17 26 -37z m916 6 c0 -21 -3 -26
-9 -16 -4 9 -5 22 -2 31 9 23 11 20 11 -15z m1183 7 c0 -17 -7 -25 -25 -28
-25 -5 -25 0 4 34 20 23 21 23 21 -6z m2550 -52 c0 -6 7 -17 16 -24 24 -21 31
-43 23 -75 l-8 -30 3 32 c2 24 -4 39 -21 55 -13 12 -23 29 -23 38 0 9 -9 25
-20 35 -11 10 -20 23 -20 29 1 14 50 -45 50 -60z m500 26 c0 -13 -1 -13 -10 0
-5 8 -10 22 -10 30 0 13 1 13 10 0 5 -8 10 -22 10 -30z m-2285 12 c-3 -3 -11
0 -18 7 -9 10 -8 11 6 5 10 -3 15 -9 12 -12z m3175 -77 c0 -5 -14 10 -30 35
-16 25 -30 50 -30 55 0 6 14 -10 30 -35 16 -25 30 -49 30 -55z m768 75 c12
-19 11 -20 -8 -8 -20 13 -27 28 -12 28 4 0 13 -9 20 -20z m-6348 -5 c1 11 4
14 7 8 2 -7 4 -15 3 -18 0 -3 6 -13 15 -22 9 -8 13 -18 10 -22 -4 -3 -12 2
-19 12 -7 9 -18 17 -25 17 -6 0 -11 10 -10 23 0 21 1 21 9 2 l9 -20 1 20z
m4455 -72 c1 -24 1 -43 -1 -43 -9 0 -31 93 -27 111 l6 23 10 -25 c5 -13 11
-43 12 -66z m1305 77 c0 -5 -4 -10 -10 -10 -5 0 -10 5 -10 10 0 6 5 10 10 10
6 0 10 -4 10 -10z m546 -15 c-3 -9 -10 -13 -16 -10 -6 4 -5 11 3 20 15 16 22
11 13 -10z m-5884 -7 c-7 -7 -12 -19 -12 -27 0 -11 4 -10 20 4 18 16 20 17 20
1 0 -9 -11 -21 -24 -26 -13 -5 -29 -17 -35 -27 -6 -10 -11 -13 -11 -6 0 6 -10
9 -22 7 -14 -3 -9 1 10 10 19 9 31 20 27 26 -6 10 21 50 34 50 3 0 0 -5 -7
-12z m3733 2 c3 -5 1 -10 -4 -10 -6 0 -11 5 -11 10 0 6 2 10 4 10 3 0 8 -4 11
-10z m610 -35 c31 -12 64 -16 109 -13 35 2 62 0 60 -4 -3 -4 -26 -8 -52 -9
-38 -1 -42 -2 -22 -9 l25 -8 -27 -1 c-15 -1 -30 4 -33 9 -3 6 -14 10 -25 10
-29 0 -100 42 -100 59 1 14 2 14 10 -1 6 -9 30 -24 55 -33z m-5960 -123 c-13
-14 -16 13 -8 85 l8 78 3 -79 c2 -43 0 -81 -3 -84z m515 98 c5 0 11 6 14 13 3
6 4 0 1 -14 -4 -23 -1 -27 25 -31 16 -3 34 0 40 6 5 5 10 7 10 2 0 -14 -29
-36 -34 -27 -3 5 -14 7 -24 5 -12 -4 -25 8 -44 41 -16 25 -28 51 -28 58 0 7 8
-3 16 -20 9 -18 20 -33 24 -33z m14 45 c-6 -16 -24 -21 -24 -7 0 11 11 22 21
22 5 0 6 -7 3 -15z m2716 -105 l-7 -115 -1 102 c-2 85 4 143 13 131 1 -2 -1
-55 -5 -118z m1197 -2 c-2 -24 -4 -5 -4 42 0 47 2 66 4 43 2 -24 2 -62 0 -85z
m708 41 c30 -52 31 -57 3 -24 -13 17 -35 48 -47 70 l-23 40 24 -26 c12 -15 32
-42 43 -60z m3 40 c23 -43 28 -59 13 -43 -17 17 -51 84 -43 84 5 0 18 -18 30
-41z m22 13 c0 -15 -2 -15 -10 -2 -13 20 -13 33 0 25 6 -3 10 -14 10 -23z
m-2400 13 c0 -10 -91 -45 -117 -44 -22 0 -19 3 17 13 25 6 54 17 65 24 21 12
35 15 35 7z m3416 -10 c-11 -8 -27 -15 -35 -15 -10 1 -7 6 9 15 33 19 50 18
26 0z m860 -12 c-8 -8 -36 5 -36 17 0 7 6 7 21 0 11 -7 18 -14 15 -17z m-5845
-13 c6 0 16 -6 23 -13 11 -11 7 -13 -20 -13 -22 0 -29 3 -21 9 9 7 9 10 0 14
-7 2 -13 12 -13 21 1 15 2 15 11 0 5 -10 15 -18 20 -18z m1279 20 c10 -5 43
-14 72 -20 l53 -9 -62 3 c-67 4 -77 1 -40 -14 22 -9 22 -9 -3 -9 -14 0 -32 4
-40 9 -13 9 -13 11 0 20 10 6 11 10 3 10 -7 0 -13 5 -13 10 0 13 6 13 30 0z
m537 -12 c-3 -8 -6 -5 -6 6 -1 11 2 17 5 13 3 -3 4 -12 1 -19z m587 7 c-25
-19 -40 -19 -24 0 7 8 20 15 28 15 13 0 12 -3 -4 -15z m1737 -28 c-8 -8 -11
-5 -11 9 0 27 14 41 18 19 2 -9 -1 -22 -7 -28z m2114 33 c-3 -5 -14 -10 -24
-10 -9 0 -26 -7 -37 -15 -10 -8 -37 -14 -59 -14 l-40 1 35 8 c19 5 51 16 70
24 41 18 64 20 55 6z m159 -79 c-10 -11 -22 -17 -27 -14 -5 3 0 13 12 22 l21
16 -21 14 c-20 12 -21 11 -15 -5 4 -10 4 -15 -1 -11 -4 5 -8 21 -9 37 l-2 28
30 -33 c28 -32 28 -35 12 -54z m-3377 -78 c-2 -32 -3 -8 -3 52 0 61 1 87 3 58
2 -29 2 -78 0 -110z m-1467 139 c0 -12 -75 -36 -91 -29 -9 3 -7 6 6 7 11 0 31
7 45 15 29 17 40 18 40 7z m1288 1 c-101 -2 -168 -7 -168 -13 0 -6 -35 -10
-80 -10 -44 0 -80 4 -80 10 0 5 -26 11 -57 13 -32 2 79 3 247 3 168 0 230 -2
138 -3z m1885 -10 c9 -3 17 -9 17 -14 0 -12 -6 -11 -40 6 -32 17 -41 32 -12
20 9 -4 25 -10 35 -12z m252 3 c-11 -7 -38 -16 -60 -19 -40 -6 -39 -6 10 12
62 23 75 25 50 7z m-4895 -19 c13 -5 13 -6 -1 -6 -8 -1 -24 6 -35 15 -19 15
-19 15 1 6 11 -5 27 -12 35 -15z m5787 17 c-3 -3 -12 -4 -19 -1 -8 3 -5 6 6 6
11 1 17 -2 13 -5z m-3469 -15 c-12 -7 -24 -7 -35 0 -15 9 -12 10 17 10 29 0
32 -1 18 -10z m547 1 c31 -5 5 -6 -70 -2 -66 2 -122 6 -124 8 -8 7 143 2 194
-6z m1220 0 c3 -5 -1 -10 -9 -10 -9 0 -16 5 -16 10 0 6 4 10 9 10 6 0 13 -4
16 -10z m1658 3 c-7 -2 -19 -2 -25 0 -7 3 -2 5 12 5 14 0 19 -2 13 -5z m392
-3 c-3 -5 -13 -10 -21 -10 -8 0 -12 5 -9 10 3 6 13 10 21 10 8 0 12 -4 9 -10z
m-5928 -6 c-3 -3 -12 -4 -19 -1 -8 3 -5 6 6 6 11 1 17 -2 13 -5z m118 -3 c-3
-5 5 -11 17 -13 12 -2 24 -10 26 -18 4 -12 2 -13 -9 -3 -14 12 -19 13 -44 13
-9 0 -12 6 -9 15 4 8 10 15 16 15 5 0 7 -4 3 -9z m978 2 c-7 -2 -21 -2 -30 0
-10 3 -4 5 12 5 17 0 24 -2 18 -5z m3643 -9 c13 -3 24 -10 24 -16 0 -5 5 -6
10 -3 20 12 9 -7 -21 -38 -30 -31 -31 -20 -1 16 13 14 13 17 1 17 -8 0 -22
-12 -31 -27 -12 -20 -18 -23 -18 -11 0 9 7 24 16 33 9 9 15 17 13 19 -2 1 -15
8 -29 14 -14 7 -17 10 -7 7 11 -3 30 -8 43 -11z m992 9 c-21 -2 -57 -2 -80 0
-24 2 -7 4 37 4 44 0 63 -2 43 -4z m-5512 -18 c10 -26 -1 -35 -13 -10 -6 14
-7 25 -2 25 5 0 12 -7 15 -15z m1294 11 c0 -3 -4 -8 -10 -11 -5 -3 -10 -1 -10
4 0 6 5 11 10 11 6 0 10 -2 10 -4z m2677 -2 c-3 -3 -12 -4 -19 -1 -8 3 -5 6 6
6 11 1 17 -2 13 -5z m24 -46 c-8 -21 -8 -35 -1 -42 7 -7 10 -6 10 2 0 7 14 12
33 11 l32 0 -35 -13 c-34 -11 -75 -2 -64 15 2 4 -3 9 -11 13 -21 8 -19 28 2
24 11 -2 22 6 28 20 14 32 19 8 6 -30z m639 20 c0 -25 -3 -29 -10 -18 -13 20
-13 50 0 50 6 0 10 -15 10 -32z m187 -30 c-2 -13 -4 -3 -4 22 0 25 2 35 4 23
2 -13 2 -33 0 -45z m280 50 c3 6 9 12 15 12 6 0 6 -6 -2 -15 -10 -12 -10 -18
1 -32 7 -10 -1 -5 -19 11 -33 31 -45 49 -15 25 13 -11 17 -11 20 -1z m-4492
-8 c3 -5 1 -10 -4 -10 -6 0 -11 5 -11 10 0 6 2 10 4 10 3 0 8 -4 11 -10z m640
-10 c9 8 15 8 15 2 0 -16 -18 -24 -40 -17 -11 4 -20 14 -20 23 1 15 2 15 15
-2 12 -16 17 -17 30 -6z m-655 -39 c0 -9 -7 -3 -15 13 -19 36 -19 47 0 22 8
-11 15 -27 15 -35z m41 22 c-12 -20 -14 -14 -5 12 4 9 9 14 11 11 3 -2 0 -13
-6 -23z m-1754 -5 c-3 -8 -6 -5 -6 6 -1 11 2 17 5 13 3 -3 4 -12 1 -19z m-44
-20 c6 -22 5 -22 -8 -4 -17 22 -20 40 -6 32 5 -3 11 -16 14 -28z m1071 17 c-8
-20 -93 -81 -124 -89 -15 -4 -6 4 20 19 34 19 38 25 18 21 -14 -3 -34 -9 -45
-12 -17 -6 -17 -6 -1 11 9 10 30 18 46 19 17 1 28 4 26 8 -2 4 0 9 5 12 5 4
13 1 17 -6 5 -8 10 -4 15 10 5 12 13 22 18 22 6 0 8 -7 5 -15z m4688 -37 c-8
-30 -19 -11 -14 24 4 27 6 29 12 13 4 -11 5 -28 2 -37z m-5433 -33 l23 -40
-25 30 c-20 23 -26 26 -27 13 0 -16 -13 -18 -135 -18 -124 0 -135 2 -145 20
-8 15 -8 20 1 20 6 0 8 7 5 16 -3 9 -2 12 5 9 5 -4 7 -16 3 -27 -4 -14 -2 -18
5 -14 6 4 11 2 11 -3 0 -7 42 -11 119 -11 99 0 120 3 125 16 3 8 1 24 -4 34
-6 10 -10 22 -10 27 0 9 17 -16 49 -72z m788 8 c-2 -16 -4 -5 -4 22 0 28 2 40
4 28 2 -13 2 -35 0 -50z m42 7 c0 -23 -1 -23 -9 -5 l-9 20 -1 -20 c-1 -12 -4
-15 -7 -7 -3 7 -2 25 2 39 5 21 8 24 16 12 5 -7 8 -25 8 -39z m592 15 c5 4 9
-1 9 -10 0 -9 -4 -13 -10 -10 -5 3 -10 1 -10 -4 0 -6 5 -11 10 -11 6 0 10 -7
10 -16 0 -14 -3 -14 -15 -4 -9 8 -14 28 -14 54 1 23 4 31 6 18 2 -12 9 -20 14
-17z m3164 25 c3 -5 1 -10 -4 -10 -6 0 -11 5 -11 10 0 6 2 10 4 10 3 0 8 -4
11 -10z m-2540 -19 c-3 -6 -13 -11 -21 -11 -8 0 -14 -3 -14 -7 0 -9 -48 -33
-66 -33 -7 0 -15 -6 -17 -12 -4 -10 -6 -10 -6 0 -1 7 20 22 47 34 26 11 41 23
34 25 -7 3 -19 0 -27 -7 -8 -6 -19 -9 -24 -5 -6 3 -18 2 -28 -3 -18 -10 -52
13 -39 26 4 3 10 1 14 -5 5 -8 21 -9 52 -3 25 5 55 6 68 3 14 -3 22 -1 22 8 0
7 3 10 6 6 3 -3 3 -10 -1 -16z m-1852 -8 c-3 -8 3 -13 13 -13 16 0 16 -2 4
-10 -8 -5 -17 -6 -20 -1 -3 4 -15 14 -28 23 l-22 15 29 -1 c18 -1 27 -5 24
-13z m1326 0 c13 -9 37 -19 54 -22 17 -4 33 -13 35 -20 3 -10 0 -12 -14 -7
-11 5 -23 9 -29 10 -15 3 -91 56 -80 56 6 0 21 -7 34 -17z m83 5 c-9 -9 -15
-9 -24 0 -9 9 -7 12 12 12 19 0 21 -3 12 -12z m1724 -34 c-5 -12 -75 -14 -488
-12 l-483 3 483 2 c452 3 483 4 481 21 -2 26 3 39 8 19 3 -10 2 -25 -1 -33z
m987 26 c7 -26 21 -25 35 3 11 21 11 21 6 -5 l-6 -27 123 -4 124 -3 -136 -1
-136 -1 -17 29 c-9 16 -13 29 -8 29 5 0 12 -9 15 -20z m975 10 c12 -1 10 -5
-8 -15 -32 -18 -46 -19 -31 -1 7 8 8 16 4 18 -4 3 -2 3 5 1 8 -1 21 -3 30 -3z
m755 -20 c29 -16 45 -30 37 -30 -8 0 -35 14 -60 30 -58 39 -44 39 23 0z m36 8
c39 -21 53 -38 31 -38 -5 0 -10 4 -10 9 0 5 -14 14 -30 21 -17 7 -33 17 -36
21 -8 13 0 11 45 -13z m31 12 c8 -5 11 -10 5 -10 -5 0 -17 5 -25 10 -8 5 -10
10 -5 10 6 0 17 -5 25 -10z m454 -16 c-49 -17 -49 -17 -34 0 12 15 49 25 64
18 5 -3 -9 -11 -30 -18z m81 16 c-3 -5 -11 -10 -16 -10 -6 0 -7 5 -4 10 3 6
11 10 16 10 6 0 7 -4 4 -10z m-7728 -22 c-3 -8 -6 -5 -6 6 -1 11 2 17 5 13 3
-3 4 -12 1 -19z m173 -3 c0 -25 0 -25 -87 -23 l-88 2 83 3 c74 3 82 6 82 23 0
11 2 20 5 20 3 0 5 -11 5 -25z m1178 9 c-9 -9 -21 -13 -28 -9 -14 9 5 25 30
25 12 0 12 -3 -2 -16z m1369 -16 c-3 -7 -5 -2 -5 12 0 14 2 19 5 13 2 -7 2
-19 0 -25z m1043 22 c0 -5 -18 -10 -40 -10 -22 0 -40 5 -40 10 0 6 18 10 40
10 22 0 40 -4 40 -10z m2953 3 c-7 -2 -19 -2 -25 0 -7 3 -2 5 12 5 14 0 19 -2
13 -5z m-1013 -28 c7 -9 8 -15 2 -15 -5 0 -12 7 -16 15 -3 8 -4 15 -2 15 2 0
9 -7 16 -15z m-5505 -5 c3 -5 1 -10 -4 -10 -6 0 -11 5 -11 10 0 6 2 10 4 10 3
0 8 -4 11 -10z m5765 0 c13 -9 13 -10 0 -10 -8 0 -22 5 -30 10 -13 9 -13 10 0
10 8 0 22 -5 30 -10z m405 0 c-3 -5 -11 -10 -16 -10 -6 0 -7 5 -4 10 3 6 11
10 16 10 6 0 7 -4 4 -10z m145 0 c0 -5 -5 -10 -11 -10 -5 0 -7 5 -4 10 3 6 8
10 11 10 2 0 4 -4 4 -10z m190 -4 c14 -2 -14 -4 -62 -5 -49 0 -88 2 -88 7 0 6
92 6 150 -2z m955 4 c-3 -5 -14 -10 -23 -10 -15 0 -15 2 -2 10 20 13 33 13 25
0z m-6325 -10 c0 -5 -4 -10 -9 -10 -6 0 -13 5 -16 10 -3 6 1 10 9 10 9 0 16
-4 16 -10z m733 3 c-13 -2 -33 -2 -45 0 -13 2 -3 4 22 4 25 0 35 -2 23 -4z
m2655 0 c-16 -2 -40 -2 -55 0 -16 2 -3 4 27 4 30 0 43 -2 28 -4z m-1766 -34
c-15 -4 -38 -7 -52 -7 -14 0 -6 4 18 10 23 5 42 15 42 21 0 7 4 6 10 -3 7 -12
3 -16 -18 -21z m-1295 5 c-3 -3 -12 -4 -19 -1 -8 3 -5 6 6 6 11 1 17 -2 13 -5z
m1108 -4 c3 -5 -1 -10 -9 -10 -9 0 -16 5 -16 10 0 6 4 10 9 10 6 0 13 -4 16
-10z m3354 -6 c9 -8 -65 -2 -84 6 -13 6 -2 7 30 3 28 -3 52 -7 54 -9z m96 6
c13 -5 14 -9 5 -9 -8 0 -24 4 -35 9 -13 5 -14 9 -5 9 8 0 24 -4 35 -9z m82 4
c-3 -3 -12 -4 -19 -1 -8 3 -5 6 6 6 11 1 17 -2 13 -5z m960 0 c-3 -3 -12 -4
-19 -1 -8 3 -5 6 6 6 11 1 17 -2 13 -5z m102 -10 c2 -2 -14 -4 -37 -4 -23 0
-42 4 -42 9 0 9 69 4 79 -5z m-5901 -1 c-10 -2 -28 -2 -40 0 -13 2 -5 4 17 4
22 1 32 -1 23 -4z m6025 0 c-7 -2 -21 -2 -30 0 -10 3 -4 5 12 5 17 0 24 -2 18
-5z m-5960 -10 c-7 -2 -19 -2 -25 0 -7 3 -2 5 12 5 14 0 19 -2 13 -5z m987
-17 c0 -7 -7 -13 -15 -13 -8 0 -15 8 -15 18 0 12 5 16 15 13 8 -4 15 -12 15
-18z m3668 17 c-10 -2 -26 -2 -35 0 -10 3 -2 5 17 5 19 0 27 -2 18 -5z m-3691
-115 c-2 -13 -4 -3 -4 22 0 25 2 35 4 23 2 -13 2 -33 0 -45z"/>
<path d="M7805 6740 c-4 -6 7 -10 26 -10 18 0 29 3 25 7 -11 11 -45 13 -51 3z"/>
<path d="M7088 6673 c6 -2 18 -2 25 0 6 3 1 5 -13 5 -14 0 -19 -2 -12 -5z"/>
<path d="M7130 6660 c0 -5 6 -10 13 -10 8 0 8 -3 -2 -9 -9 -6 -11 -15 -6 -27
7 -17 8 -16 15 6 4 14 5 31 2 38 -5 14 -22 16 -22 2z"/>
<path d="M8123 6200 c0 -25 2 -35 4 -22 2 12 2 32 0 45 -2 12 -4 2 -4 -23z"/>
<path d="M8128 5965 c2 -66 6 -122 8 -124 7 -8 2 143 -6 194 -5 31 -6 5 -2
-70z"/>
<path d="M5800 5401 c0 -6 5 -13 10 -16 6 -3 10 1 10 9 0 9 -4 16 -10 16 -5 0
-10 -4 -10 -9z"/>
<path d="M4890 5180 c0 -5 5 -10 10 -10 6 0 10 5 10 10 0 6 -4 10 -10 10 -5 0
-10 -4 -10 -10z"/>
<path d="M3805 4920 c-3 -5 1 -10 9 -10 9 0 16 5 16 10 0 6 -4 10 -9 10 -6 0
-13 -4 -16 -10z"/>
<path d="M8195 4829 c-11 -17 1 -21 15 -4 8 9 8 15 2 15 -6 0 -14 -5 -17 -11z"/>
<path d="M4284 4526 c-3 -21 -4 -39 -1 -42 2 -3 8 11 11 32 4 20 5 38 2 41 -2
3 -8 -11 -12 -31z"/>
<path d="M2640 4380 c0 -5 -7 -10 -15 -10 -8 0 -15 -4 -15 -10 0 -14 5 -13 42
10 29 18 30 20 11 20 -13 0 -23 -4 -23 -10z"/>
<path d="M4690 4180 c0 -5 5 -10 10 -10 6 0 10 5 10 10 0 6 -4 10 -10 10 -5 0
-10 -4 -10 -10z"/>
</g>
</svg>
